<mxfile host="65bd71144e">
    <diagram id="W24BFSsCJi4RG7cl9rUG" name="Página-1">
        <mxGraphModel dx="641" dy="421" grid="1" gridSize="10" guides="1" tooltips="1" connect="1" arrows="1" fold="1" page="1" pageScale="1" pageWidth="827" pageHeight="1169" math="0" shadow="0">
            <root>
                <mxCell id="0"/>
                <mxCell id="1" parent="0"/>
                <mxCell id="2" value="Libro" style="swimlane;startSize=30;" vertex="1" parent="1">
                    <mxGeometry x="80" y="40" width="340" height="120" as="geometry"/>
                </mxCell>
                <mxCell id="3" value="Número de hojas: 1 Número&lt;br&gt;Forma de impresión: 1 enum Formalmpresión&lt;br&gt;Técnica de encuadernación: 1 enum TécnicaEncuadernación" style="text;html=1;strokeColor=none;fillColor=none;align=left;verticalAlign=middle;whiteSpace=wrap;rounded=0;" vertex="1" parent="2">
                    <mxGeometry y="50" width="340" height="60" as="geometry"/>
                </mxCell>
                <mxCell id="4" value="&lt;div&gt;&lt;span&gt;Formalmpresión&lt;/span&gt;&lt;/div&gt;&lt;div&gt;&lt;span&gt;&lt;span style=&quot;white-space: pre&quot;&gt;&#9;&lt;/span&gt;Manuscrito&lt;/span&gt;&lt;/div&gt;&lt;div&gt;&lt;span&gt;&lt;span style=&quot;white-space: pre&quot;&gt;&#9;&lt;/span&gt;Impresión&lt;/span&gt;&lt;/div&gt;" style="text;html=1;strokeColor=none;fillColor=none;align=left;verticalAlign=middle;whiteSpace=wrap;rounded=0;" vertex="1" parent="1">
                    <mxGeometry x="490" y="40" width="110" height="70" as="geometry"/>
                </mxCell>
                <mxCell id="5" value="TécnicaEncuadernación&lt;br&gt;&lt;span style=&quot;white-space: pre&quot;&gt;&#9;&lt;/span&gt;Cosido&lt;br&gt;&lt;span style=&quot;white-space: pre&quot;&gt;&#9;&lt;/span&gt;Encuadernado" style="text;html=1;strokeColor=none;fillColor=none;align=left;verticalAlign=middle;whiteSpace=wrap;rounded=0;" vertex="1" parent="1">
                    <mxGeometry x="620" y="45" width="140" height="60" as="geometry"/>
                </mxCell>
                <mxCell id="6" value="Conjunto de hojas de papel que forman un volumen." style="text;html=1;strokeColor=none;fillColor=none;align=left;verticalAlign=middle;whiteSpace=wrap;rounded=0;" vertex="1" parent="1">
                    <mxGeometry x="80" y="200" width="360" height="30" as="geometry"/>
                </mxCell>
                <mxCell id="7" value="Muestra" style="swimlane;" vertex="1" parent="1">
                    <mxGeometry x="80" y="260" width="210" height="100" as="geometry"/>
                </mxCell>
                <mxCell id="8" value="Fracción del total: 1 Número&lt;br&gt;Método de extracción: 1 Texto" style="text;html=1;strokeColor=none;fillColor=none;align=left;verticalAlign=middle;whiteSpace=wrap;rounded=0;" vertex="1" parent="7">
                    <mxGeometry x="10" y="30" width="190" height="60" as="geometry"/>
                </mxCell>
                <mxCell id="9" value="Parte extraída de un conjunto, representativa del mismo" style="text;html=1;strokeColor=none;fillColor=none;align=center;verticalAlign=middle;whiteSpace=wrap;rounded=0;" vertex="1" parent="1">
                    <mxGeometry x="70" y="390" width="320" height="20" as="geometry"/>
                </mxCell>
            </root>
        </mxGraphModel>
    </diagram>
</mxfile>